<?xml version="1.0" encoding="UTF-8" standalone="no"?>
<svg
   id="Layer_1"
   viewBox="0 0 1123.74 567.5"
   version="1.1"
   sodipodi:docname="sk-Logo-6-outline.svg"
   inkscape:version="1.4 (e7c3feb100, 2024-10-09)"
   xmlns:inkscape="http://www.inkscape.org/namespaces/inkscape"
   xmlns:sodipodi="http://sodipodi.sourceforge.net/DTD/sodipodi-0.dtd"
   xmlns="http://www.w3.org/2000/svg"
   xmlns:svg="http://www.w3.org/2000/svg">
  <sodipodi:namedview
     id="namedview4"
     pagecolor="#ffffff"
     bordercolor="#000000"
     borderopacity="0.25"
     inkscape:showpageshadow="2"
     inkscape:pageopacity="0.0"
     inkscape:pagecheckerboard="0"
     inkscape:deskcolor="#d1d1d1"
     inkscape:zoom="1.5656388"
     inkscape:cx="704.18543"
     inkscape:cy="550.89337"
     inkscape:window-width="3840"
     inkscape:window-height="2031"
     inkscape:window-x="0"
     inkscape:window-y="0"
     inkscape:window-maximized="1"
     inkscape:current-layer="Layer_1" />
  <defs
     id="defs1">
    <style
       id="style1">.cls-1{fill:none;stroke:#292629;stroke-miterlimit:10;}</style>
  </defs>
  <path
     class="cls-1"
     d="m 107.19959,519.00247 c 4.2411,-58.71932 8.98893,-117.41085 14.27513,-176.07443 5.32365,-59.03871 11.17616,-118.04699 17.57016,-177.01965 3.57599,-32.99253 7.32613,-65.971524 11.22827,-98.939621 0.71996,-6.093492 -10.9307,-8.177852 -11.66053,-2.030791 -6.98953,58.959782 -13.45348,117.967852 -19.38857,177.006392 -5.9422,59.15084 -11.36193,118.34231 -16.23376,177.55922 -2.74178,33.30774 -5.309402,66.62902 -7.718619,99.95102 -0.444883,6.17388 11.480269,5.66299 11.918389,-0.44962 v 0 z"
     id="path1"
     style="stroke-width:0.899342"
     sodipodi:nodetypes="ccccccccscc" />
  <path
     class="cls-1"
     d="m 767.63746,495.07043 c 4.24581,-50.94411 8.99892,-101.8641 14.291,-152.75985 5.32956,-51.22121 11.18858,-102.41601 17.58969,-153.5799 3.57996,-28.62389 7.33427,-57.23603 11.24075,-85.83871 0.72076,-5.286637 -10.94285,-7.094997 -11.67349,-1.76189 -6.9973,51.15273 -13.46844,102.34734 -19.41013,153.5684 -5.9488,51.31849 -11.37456,102.67223 -16.2518,154.04803 -2.74483,28.89736 -5.3153,57.80646 -7.7272,86.71619 -0.44538,5.35638 11.49303,4.91314 11.93164,-0.39008 v 0 z"
     id="path1-3"
     style="fill:none;stroke:#292629;stroke-width:0.838152;stroke-linecap:round;stroke-linejoin:round;stroke-miterlimit:10"
     sodipodi:nodetypes="ccccccccscc" />
  <path
     class="cls-1"
     d="m 974.70898,495.60387 c 4.24106,-58.80031 8.98883,-117.5728 14.27497,-176.31729 5.3237,-59.12015 11.17605,-118.20982 17.56995,-177.26383 3.576,-33.03804 7.326,-66.062507 11.2281,-99.076082 0.72,-6.101895 -10.9306,-8.18913 -11.6604,-2.033591 -6.98935,59.041106 -13.45325,118.130563 -19.38829,177.250533 -5.94213,59.23243 -11.3618,118.50555 -16.23358,177.80414 -2.74175,33.35368 -5.30934,66.72092 -7.71853,100.08889 -0.44488,6.18239 11.48014,5.6708 11.91825,-0.45024 v 0 z"
     id="path1-0"
     style="fill:none;stroke:#292629;stroke-width:0.899957;stroke-linecap:round;stroke-miterlimit:10"
     sodipodi:nodetypes="ccccccccscc" />
  <path
     class="cls-1"
     d="m 138.47078,78.345047 c 27.16285,13.544314 54.15123,27.567073 80.95503,42.098423 26.97405,14.62774 53.76531,29.75461 80.36728,45.39181 14.88297,8.74719 29.70405,17.65817 44.47155,26.71225 2.72988,1.67225 7.44279,-9.09447 4.69004,-10.7848 -26.40655,-16.20269 -53.0035,-31.91228 -79.78323,-47.12276 -26.83199,-15.23542 -53.84969,-29.97946 -81.05377,-44.205429 -15.301,-8.003123 -30.6639,-15.842456 -46.07746,-23.530937 -2.85629,-1.423092 -6.39632,10.025222 -3.56763,11.431947 v 0 z"
     id="path1-5"
     style="fill:none;stroke:#292629;stroke-width:0.644869;stroke-miterlimit:10"
     sodipodi:nodetypes="ccccccccscc" />
  <path
     class="cls-1"
     d="m 777.70788,292.29088 c 29.20331,-8.2726 58.59972,-16.07397 88.20207,-23.37501 29.79312,-7.34439 59.78712,-14.19665 89.98474,-20.54413 16.89373,-3.5522 33.85197,-6.94163 50.86691,-10.18917 3.1443,-0.60142 -0.6196,-11.73545 -3.7931,-11.13197 -30.43374,5.79775 -60.67638,12.08832 -90.71815,18.871 -30.09721,6.79942 -60.0009,14.08721 -89.69362,21.88354 -16.70188,4.38381 -33.33926,8.93041 -49.91253,13.62265 -3.07007,0.87075 2.01998,11.71912 5.05863,10.85485 v 0 z"
     id="path1-5-2"
     style="fill:none;stroke:#292629;stroke-width:0.645;stroke-linecap:round;stroke-linejoin:bevel;stroke-miterlimit:10;stroke-dasharray:none"
     sodipodi:nodetypes="ccccccccscc" />
  <path
     class="cls-1"
     d="m 432.76126,227.37871 c -38.84,7.33 -54.15,49.21 -61.61,83.14 -4.54,20.62 -6.86,41.78 -6.83,62.9 0.03,19.41 0.81,40.79 7.48,59.23 5.71,15.8 17.83,30.23 35.25,32.91 18.49,2.85 32.44,-10.28 40.89,-25.31 9.55,-16.98 14.09,-36.22 17.69,-55.19 4.02,-21.15 6.72,-42.59 7.98,-64.09 0.67,-11.49 0.72,-23.21 -2.47,-34.37 -2.22,-7.76 -4.22,-15.57 -6.46,-23.32 -3.89,-13.46 -9.34,-31.08 -24.3,-35.72 -7.34,-2.27 -10.47,9.22 -3.17,11.48 9.62,2.98 13.14,17.75 15.61,26.1 4.1,13.9 9.07,28.38 9.26,42.94 0.25,18.51 -2.06,37.37 -4.83,55.64 -2.65,17.46 -5.78,35.18 -11.46,51.94 -4.56,13.48 -12.33,32.55 -27.21,37.46 -14.85,4.9 -28.49,-7.89 -34.05,-20.46 -6.84,-15.48 -7.64,-34.02 -8.17,-50.68 -0.59,-18.46 0.59,-37.02 3.71,-55.23 5.66,-33.05 16.93,-80.54 55.85,-87.88 7.52,-1.42 4.34,-12.9 -3.17,-11.48 v 0 z"
     id="path3"
     sodipodi:nodetypes="ccccccccccccccccsccccscc" />
  <path
     class="cls-1"
     d="m 721.16496,192.0327 c -22.48373,-39.17901 -84.49994,-36.02971 -133.19375,-21.01524 -127.37061,39.27404 -133.56248,290.77182 93.7122,243.5153 30.61388,-8.89103 56.8976,-35.89856 63.77707,-67.22909 -14.95556,-12.68485 -26.41078,31.9056 -48.15772,42.84111 -132.68139,66.71923 -224.77916,-58.94279 -162.0789,-156.89717 29.51055,-46.10328 106.58372,-83.94819 175.54354,-36.33902 3.72725,11.88045 10.38388,-4.88801 10.38388,-4.88801 v 0 z"
     id="path3-5"
     style="fill:none;stroke:#292629;stroke-width:1.38754;stroke-miterlimit:10"
     sodipodi:nodetypes="csccsscscc" />
  <path
     class="cls-1"
     d="m 343.74675,179.07055 c -55.45334,19.55197 -111.58004,37.17419 -168.27334,52.78456 -16.16055,4.45072 -32.36216,8.72899 -48.61303,12.85946 -2.83302,0.72262 -4.77098,4.61495 -2.92335,7.1852 7.5383,10.45344 16.30835,19.85579 25.02093,29.32384 9.25454,10.05928 18.51729,20.11857 27.77183,30.16964 18.51729,20.11856 37.03459,40.22892 55.55188,60.34749 36.66506,39.82655 73.32192,79.6531 109.98698,119.47965 20.73444,22.5328 41.47709,45.05738 62.21154,67.59018 4.27006,4.63959 11.16785,-2.29105 6.91421,-6.91422 -72.95239,-79.25073 -145.90477,-158.50968 -218.85716,-237.76041 -10.37133,-11.2664 -20.73445,-22.53279 -31.10577,-33.79098 -10.37133,-11.25819 -20.41419,-21.41601 -29.04464,-33.3804 l -2.92336,7.1852 c 56.98893,-14.48536 113.46873,-30.94153 169.2998,-49.38492 15.9142,-5.25546 31.77913,-10.68337 47.58657,-16.25088 5.89598,-2.07755 3.35857,-11.52917 -2.60309,-9.42698 v 0 z"
     id="path2-9"
     style="fill:none;stroke:#292629;stroke-width:0.821166;stroke-miterlimit:10"
     sodipodi:nodetypes="cccccccccccsccccscc" />
</svg>
