<?xml version="1.0" encoding="UTF-8"?> <svg xmlns="http://www.w3.org/2000/svg" id="Layer_1" viewBox="0 0 1123.74 567.5"><defs><style>.cls-1{fill:none;stroke:#292629;stroke-miterlimit:10;}</style></defs><path class="cls-1" d="m12.42,563c26.64-67.81,53.75-135.43,81.36-202.85,27.79-67.85,56.07-135.5,84.85-202.94,16.1-37.73,32.36-75.39,48.76-112.99,3.03-6.95-7.22-13.02-10.28-6.01-29.34,67.24-58.2,134.7-86.57,202.36-28.42,67.79-56.36,135.79-83.79,203.99-15.43,38.36-30.7,76.79-45.82,115.27-2.8,7.13,8.71,10.23,11.48,3.17h0Z"></path><path class="cls-1" d="m353.01,50.53c-67.53,23.81-135.88,45.27-204.92,64.28-19.68,5.42-39.41,10.63-59.2,15.66-3.45.88-5.81,5.62-3.56,8.75,9.18,12.73,19.86,24.18,30.47,35.71,11.27,12.25,22.55,24.5,33.82,36.74,22.55,24.5,45.1,48.99,67.65,73.49,44.65,48.5,89.29,97,133.94,145.5,25.25,27.44,50.51,54.87,75.76,82.31,5.2,5.65,13.6-2.79,8.42-8.42-88.84-96.51-177.68-193.03-266.52-289.54-12.63-13.72-25.25-27.44-37.88-41.15s-24.86-26.08-35.37-40.65l-3.56,8.75c69.4-17.64,138.18-37.68,206.17-60.14,19.38-6.4,38.7-13.01,57.95-19.79,7.18-2.53,4.09-14.04-3.17-11.48h0Z"></path><path class="cls-1" d="m577.75,226.74c-38.84,7.33-54.15,49.21-61.61,83.14-4.54,20.62-6.86,41.78-6.83,62.9.03,19.41.81,40.79,7.48,59.23,5.71,15.8,17.83,30.23,35.25,32.91,18.49,2.85,32.44-10.28,40.89-25.31,9.55-16.98,14.09-36.22,17.69-55.19,4.02-21.15,6.72-42.59,7.98-64.09.67-11.49.72-23.21-2.47-34.37-2.22-7.76-4.22-15.57-6.46-23.32-3.89-13.46-9.34-31.08-24.3-35.72-7.34-2.27-10.47,9.22-3.17,11.48,9.62,2.98,13.14,17.75,15.61,26.1,4.1,13.9,9.07,28.38,9.26,42.94.25,18.51-2.06,37.37-4.83,55.64-2.65,17.46-5.78,35.18-11.46,51.94-4.56,13.48-12.33,32.55-27.21,37.46-14.85,4.9-28.49-7.89-34.05-20.46-6.84-15.48-7.64-34.02-8.17-50.68-.59-18.46.59-37.02,3.71-55.23,5.66-33.05,16.93-80.54,55.85-87.88,7.52-1.42,4.34-12.9-3.17-11.48h0Z"></path><path class="cls-1" d="m833.53,3.09c-20.62,28.45-39.13,58.39-55.24,89.61-7.94,15.39-15.97,31.13-22.19,47.32-2.76,7.18-2.79,15.21,3.6,20.42,5.86,4.79,14.52,6.17,21.57,8.31,71.91,21.88,143.35,45.31,214.25,70.27,40.21,14.16,80.24,28.81,120.09,43.95l-3.56-8.75c-53.64,78.19-113.87,151.77-179.94,219.78-18.49,19.04-37.45,37.62-56.81,55.77-5.6,5.25,2.83,13.66,8.42,8.42,69.49-65.12,133.39-136.08,190.97-211.94,16.41-21.62,32.29-43.64,47.65-66.03,2.36-3.44-.24-7.49-3.56-8.75-67.23-25.53-134.97-49.69-203.2-72.43-33.96-11.32-68.03-22.29-102.21-32.9-8.7-2.7-17.41-5.38-26.12-8.04-4.05-1.23-8.1-2.46-12.14-3.69-2.48-.75-6.93-1.41-8.5-3.75-1.9-2.84,1.32-8.31,2.47-10.96,1.69-3.89,3.42-7.76,5.19-11.61,3.4-7.43,6.94-14.81,10.6-22.12,16.97-33.85,36.73-66.25,58.95-96.9,4.5-6.21-5.82-12.16-10.28-6.01h0Z"></path></svg> 